<svg width="186" height="70" viewBox="0 0 186 70" fill="none" xmlns="http://www.w3.org/2000/svg">
<g clip-path="url(#clip0_14_3)">
<path d="M107.125 20.6118C106.823 20.3282 106.884 20.0072 106.821 19.6506C106.635 18.6123 106.262 17.6032 106.134 16.5399C106.12 16.4231 105.866 16.3356 105.73 16.2271C105.604 16.1312 105.335 16.0249 105.544 15.8539C106.433 15.1117 105.672 14.8344 105.167 14.48C104.86 14.2652 104.745 13.9817 104.671 13.6126C104.332 11.953 103.925 10.3038 103.284 8.72759C102.63 7.12218 102.734 6.91994 104.481 6.68434C104.869 6.63222 105.161 6.81778 105.489 6.93662C106.584 7.33067 108.152 6.36743 108.073 5.28117C107.969 3.8363 107.72 2.39977 107.129 1.0529C106.646 -0.0500378 104.509 -0.404479 103.912 0.562936C103.563 1.13213 103.1 1.26765 102.57 1.41359C101.992 1.57205 101.413 1.73259 100.823 1.83475C99.2929 2.10163 97.8334 2.8668 96.1736 2.16001C95.4258 1.84101 94.0089 3.45893 94.1942 4.26372C94.4563 5.40835 94.6928 6.55924 95.0103 7.68929C95.4385 9.20713 97.2581 9.66373 98.3874 8.53577C98.9179 8.0062 99.5145 7.73932 100.256 7.69346C100.835 7.65801 101.119 7.84566 101.072 8.45446C100.938 10.1349 101.358 11.7487 101.758 13.3583C101.837 13.6689 101.98 13.9629 101.756 14.2464C100.657 15.6454 100.629 17.1633 101.475 19.0272C100.507 18.0807 100.207 18.7082 100.058 19.2024C99.93 19.6277 99.7446 19.9592 99.425 20.2407C98.6878 20.8849 98.0017 21.6042 97.1963 22.1526C96.0777 22.9094 95.3384 24.4106 93.4656 23.7872C92.6303 23.5078 91.6992 23.1033 91.5075 22.1588C90.4272 16.8193 89.3576 11.4797 88.2817 6.13808C87.7575 3.53399 86.4131 2.46024 84.308 2.3685C82.4351 2.28719 80.5197 2.59576 78.6213 2.7292C75.2165 2.96897 71.8159 3.42557 68.409 3.47978C65.8714 3.52148 63.9666 4.67237 62.0639 6.00256C61.5014 6.39662 61.2862 7.03878 61.0476 7.66844C60.5639 8.95693 61.169 10.1203 61.4226 11.3108C62.554 16.642 63.7258 21.967 64.902 27.2878C66.174 33.0485 67.4545 38.8092 68.7627 44.5616C69.11 46.0878 70.4821 47.0447 72.1014 47.0614C73.448 47.0739 74.6433 46.4943 75.8834 46.1274C79.2668 45.1287 82.612 44.0049 85.9912 42.9958C88.2966 42.3077 90.521 41.5572 92.4578 40.0331C94.092 38.7467 94.4648 37.1892 94.1218 35.3524C93.5721 32.4042 92.9457 29.4707 92.3661 26.5289C92.332 26.3558 92.2362 26.1181 92.5153 25.9701C93.0437 26.3099 93.6594 26.4642 94.2518 26.6832C95.1253 27.0084 95.7113 26.6519 95.8668 25.8825C95.9883 25.2737 96.2844 24.9068 96.7212 24.5461C97.3945 23.9873 97.974 23.2784 98.7283 22.8698C99.555 22.4215 100.068 20.7348 101.47 22.0191C101.509 22.0546 101.649 22.0546 101.671 22.0233C102.191 21.2831 102.242 22.0379 102.472 22.2547C102.7 22.4695 102.973 22.7155 103.303 22.5925C103.75 22.4278 103.46 22.0796 103.433 21.7919C103.362 21.1017 102.894 20.5013 102.985 19.7799C103.712 20.8057 103.786 22.0316 104.144 23.1763C104.328 23.7601 103.825 24.6899 104.639 24.8838C105.216 25.0194 105.926 24.6274 106.575 24.471C106.61 24.4627 106.639 24.4397 106.674 24.4314C107.232 24.3167 107.366 23.9936 107.119 23.5182C106.916 23.1304 106.765 22.7989 107.183 22.4132C107.824 21.8231 107.739 21.1851 107.125 20.6118ZM74.0872 6.27569C75.5893 6.13183 77.0723 5.79198 78.5936 5.82951C78.8578 5.83577 79.0943 5.88581 79.1177 6.20689C79.139 6.51963 78.9473 6.62179 78.6639 6.65307C77.3727 6.79276 76.0836 6.94079 74.9267 7.07006C74.5794 7.07006 74.3663 7.07423 74.1554 7.07006C73.9359 7.06589 73.6994 7.04087 73.6675 6.78233C73.6313 6.50295 73.8145 6.3028 74.0872 6.27569ZM83.4877 40.1853C82.7121 40.2145 81.9579 39.491 81.9195 38.6841C81.8769 37.7459 82.6397 36.889 83.5452 36.8535C84.5402 36.8181 85.0963 37.3602 85.107 38.386C85.1198 39.4305 84.4763 40.1477 83.4877 40.1853ZM89.8924 33.0965C84.5743 34.4871 79.2519 35.859 73.9509 37.306C72.9814 37.5707 72.73 37.2747 72.5382 36.4365C71.1427 30.3818 69.7087 24.3355 68.2918 18.285C67.7826 16.1 67.3181 13.9045 66.7663 11.7299C66.598 11.0586 66.794 10.8584 67.4268 10.7833C69.5212 10.5352 71.6093 10.2475 73.7016 9.99315C75.7981 9.73879 77.8947 9.49902 79.9913 9.26759C81.634 9.08412 83.2789 8.9194 85.0708 8.73176C85.5374 8.68797 85.8485 8.85894 85.9869 9.55531C87.4741 17.0653 89.0018 24.5669 90.5529 32.0623C90.6872 32.717 90.4613 32.9463 89.8924 33.0965ZM102.683 18.3663C102.97 18.7187 102.787 19.2357 102.947 19.6882C102.781 19.2378 102.921 18.727 102.683 18.3663Z" fill="white"/>
<path d="M21.4706 68.4884C20.7441 65.3818 20.0644 62.2648 19.3954 59.1478C18.7945 56.3519 17.3244 54.3337 14.0794 53.5664C15.6049 52.8909 16.8173 52.2759 17.9252 51.4565C22.2228 48.2748 22.4593 40.0268 16.2186 37.7417C15.149 37.3497 14.0474 37.0745 12.9054 37.0683C8.89762 37.0432 4.88986 37.0578 0.88422 37.012C0.164058 37.0057 0.00212778 37.2351 0.00425844 37.8981C0.0234344 48.1352 0.025565 58.3722 -2.87744e-06 68.6093C-0.00213353 69.3391 0.270591 69.4767 0.924703 69.4662C2.90834 69.4371 4.89625 69.4266 6.87989 69.4704C7.61923 69.4871 7.84508 69.2723 7.83869 68.5384C7.80246 64.894 7.82164 61.2516 7.82164 57.6071C7.82164 56.06 8.46936 55.7056 9.93312 56.4332C10.5723 56.7502 10.9601 57.2797 11.2286 57.8948C11.5801 58.6933 11.7889 59.5336 11.9061 60.3967C12.2705 63.1113 12.6625 65.8238 12.9949 68.5405C13.0865 69.289 13.3933 69.4933 14.1497 69.4746C16.3102 69.4204 18.4771 69.4204 20.6375 69.4746C21.4728 69.4954 21.6603 69.2932 21.4706 68.4884ZM9.43455 50.2159C7.82164 50.2264 7.82164 50.2264 7.82164 48.6376V46.6674C7.82164 45.8375 7.87065 45.0036 7.80673 44.1779C7.75346 43.4586 8.05814 43.2605 8.72078 43.3377C8.99989 43.369 9.2854 43.3398 9.56665 43.3439C11.9892 43.3669 13.1483 44.424 13.1419 46.6027C13.1376 48.819 11.7207 50.1993 9.43455 50.2159Z" fill="#00C684"/>
<path d="M72.0056 68.4425C70.8806 64.4123 69.7939 60.3717 68.7116 56.3332C67.0646 50.1888 65.4261 44.0424 63.7983 37.8939C63.6278 37.2497 63.2997 37.0266 62.6072 37.0453C60.6939 37.0933 58.7763 37.1079 56.863 37.0391C56.0171 37.0099 55.6847 37.3205 55.493 38.0795C54.7899 40.8608 54.042 43.6296 53.3027 46.4026C51.3361 53.7854 49.3822 61.1702 47.3752 68.5426C47.1387 69.4141 47.3901 69.5705 48.1912 69.558C50.1748 69.5267 52.1628 69.5205 54.1464 69.5622C54.792 69.5747 55.1542 69.3849 55.2671 68.7636C55.5654 67.1019 55.8914 65.4444 56.1492 63.7764C56.2195 63.3177 56.3239 63.0842 56.8374 63.0884C58.5398 63.103 60.2422 63.0967 61.9446 63.0905C62.4517 63.0905 62.6903 63.2906 62.7713 63.814C63.0142 65.3443 63.3871 66.8559 63.5682 68.3904C63.679 69.3307 64.201 69.5392 64.9872 69.5455C66.0142 69.5517 67.0433 69.5476 68.0724 69.5476C69.0993 69.5476 70.1306 69.51 71.1554 69.558C72.078 69.6018 72.2378 69.2765 72.0056 68.4425ZM60.7344 57.0587C59.8843 57.0379 59.032 57.0462 58.1819 57.0567C57.6641 57.0629 57.4297 56.9878 57.5597 56.3415C58.2138 53.1119 58.7997 49.8698 59.4091 46.6319C59.4603 46.6298 59.5114 46.6257 59.5625 46.6215C59.9183 48.4396 60.2869 50.2535 60.6215 52.0757C60.8771 53.4643 61.0327 54.8737 61.3395 56.2498C61.4823 56.8815 61.3757 57.0775 60.7344 57.0587Z" fill="white"/>
<path d="M44.5968 64.502C44.5329 65.853 44.5478 67.2083 44.5904 68.5614C44.6117 69.214 44.4498 69.4746 43.7147 69.4704C37.6508 69.4433 31.5849 69.4558 25.521 69.4579C25.0736 69.4579 24.6879 69.4788 24.6943 68.8345C24.7199 66.3388 24.6155 63.839 25.1375 61.3704C25.7959 58.2534 27.9862 56.1705 30.2276 54.1294C31.6275 52.8534 33.1125 51.6671 34.4932 50.3723C36.2425 48.7335 36.6217 47.2949 35.8121 45.8751C34.9684 44.3948 32.9442 43.7422 30.8327 44.2655C30.0061 44.4698 29.2113 44.7638 28.4698 45.1787C27.7667 45.5728 27.0785 45.996 26.1964 46.5172C26.1964 44.2738 26.1986 42.2035 26.1922 40.1331C26.1922 39.8141 26.32 39.6328 26.6311 39.5139C30.0849 38.19 33.6005 37.3664 37.3163 38.2838C45.1614 40.2249 45.3191 48.3416 42.1167 52.1174C40.7723 53.6999 39.2361 55.0801 37.6551 56.4228C36.2105 57.6488 34.6978 58.7976 33.413 60.1966C32.8057 60.8575 32.4329 61.6269 32.1857 62.4733C31.9663 63.2302 32.0728 63.5805 33.038 63.5659C36.5493 63.5096 40.0606 63.5679 43.5719 63.5242C44.3603 63.5158 44.633 63.7076 44.5968 64.502Z" fill="#00C684"/>
<path d="M186 68.3237C186.009 69.2974 185.687 69.6018 184.713 69.5642C182.977 69.5017 181.236 69.4975 179.501 69.5663C178.579 69.6039 178.285 69.3599 178.298 68.4175C178.349 64.1142 178.319 59.8109 178.319 55.5075C178.319 55.2657 178.321 55.0217 178.319 54.7799C178.313 53.998 177.952 53.3788 177.188 53.2057C176.438 53.0369 175.86 53.4476 175.457 54.1044C174.769 55.2261 174.742 56.4875 174.722 57.7113C174.665 61.3204 174.684 64.9315 174.718 68.5384C174.725 69.289 174.543 69.5893 173.717 69.5642C171.874 69.5079 170.026 69.5142 168.186 69.5622C167.406 69.583 167.235 69.2849 167.242 68.5906C167.269 65.19 167.254 61.7874 167.254 58.3868C167.254 55.0551 167.291 51.7234 167.231 48.3937C167.212 47.4471 167.519 47.2011 168.437 47.247C169.852 47.3179 171.275 47.3074 172.692 47.2511C173.538 47.2157 173.972 47.4221 174.128 48.327C174.318 49.4299 174.541 49.4799 175.291 48.6501C177.009 46.7508 179.205 46.4276 181.492 47.0677C183.938 47.7515 185.31 49.5383 185.791 52.0027C185.945 52.7971 185.979 53.579 185.979 54.3733C185.981 59.0228 185.955 63.6743 186 68.3237Z" fill="white"/>
<path d="M163.483 56.2915C163.095 51.0916 158.719 46.4735 152.949 46.8487C148.441 46.4547 144.465 49.6655 143.172 53.7353C142.494 55.8661 142.268 58.0032 142.528 60.2508C142.826 62.857 143.702 65.1588 145.492 67.0811C147.65 69.3995 150.463 70.0396 153.561 69.9792C157.272 69.9062 160.935 67.5314 162.38 64.1767C163.473 61.6394 163.69 59.054 163.483 56.2915ZM155.044 62.6089C154.528 63.7535 153.733 64.256 152.687 64.1246C151.556 63.9828 150.989 63.1572 150.699 62.2148C150.311 60.9618 150.092 59.6628 150.233 58.537C150.205 56.8127 150.307 55.3199 150.974 53.8938C151.387 53.0077 152.018 52.5094 152.988 52.4823C153.961 52.4552 154.5 53.1078 154.965 53.8333C155.527 54.7173 155.559 55.7431 155.666 56.721C155.883 58.7163 155.894 60.7199 155.044 62.6089Z" fill="white"/>
<path d="M92.7816 68.5989C92.788 69.3036 92.5962 69.5893 91.8292 69.5622C90.3782 69.51 88.9187 69.4954 87.4699 69.5663C86.5516 69.6122 86.1233 69.2807 85.8889 68.4321C85.5928 67.373 85.5352 67.3876 84.6809 68.1965C82.5907 70.1689 79.8208 70.5942 77.492 69.1243C75.4658 67.8463 74.3514 65.8739 74.2875 63.5471C74.1703 59.3855 74.2662 55.2177 74.2406 51.0541C74.2364 50.4495 74.426 50.1492 75.0375 50.1013C76.4778 49.9929 77.916 49.874 79.3542 49.7677C79.6717 49.7447 79.9955 49.7823 80.313 49.7573C81.7022 49.6551 81.7022 49.6488 81.7022 51.077C81.7022 54.1294 81.7214 57.1838 81.6894 60.2383C81.683 60.9764 81.8066 61.6873 81.9472 62.392C82.1709 63.5012 83.2405 63.8411 84.1269 63.0947C84.8023 62.5276 85.1219 61.7916 85.1155 60.893C85.0963 57.3173 85.124 53.7437 85.0942 50.1701C85.0878 49.4466 85.2306 49.1693 86.0679 49.1068C87.8875 48.9691 89.6986 48.6835 91.5032 48.3958C92.6836 48.2081 92.7667 48.2332 92.7688 49.4424C92.771 52.6011 92.7688 55.7577 92.7688 58.9164C92.7688 62.1439 92.7518 65.3714 92.7816 68.5989Z" fill="white"/>
<path d="M127.256 68.5676C127.266 69.0764 127.07 69.3161 126.591 69.4558C124.482 70.0709 122.349 70.1814 120.22 69.6372C117.725 68.9992 116.202 67.0018 116.18 64.4436C116.168 62.6381 116.178 60.8346 116.178 59.0311C116.178 57.2276 116.149 55.4221 116.193 53.6186C116.21 52.8951 115.98 52.6595 115.228 52.6637C113.411 52.6762 113.411 52.6407 113.411 50.8227C113.411 49.922 113.438 49.0171 113.402 48.1164C113.379 47.5097 113.562 47.222 114.237 47.2553C114.943 47.2887 115.759 47.4367 116.33 47.1532C116.982 46.83 116.538 45.9501 116.636 45.3226C116.837 44.0674 116.969 42.7935 117.007 41.5238C117.028 40.7857 117.267 40.5668 117.996 40.5897C119.519 40.6335 121.045 40.6252 122.568 40.5918C123.22 40.5772 123.438 40.8024 123.425 41.4341C123.393 43.0979 123.435 44.7638 123.403 46.4297C123.393 47.0552 123.597 47.3116 124.256 47.2762C124.997 47.2345 125.745 47.2845 126.489 47.2616C127.021 47.2428 127.262 47.4242 127.251 47.9767C127.226 49.2944 127.23 50.6142 127.249 51.9318C127.258 52.4447 127.1 52.7366 126.527 52.6803C126.457 52.6741 126.384 52.6783 126.314 52.6803C123.838 52.7429 123.838 52.7429 123.838 55.1447C123.838 57.3652 123.836 59.5857 123.84 61.8062C123.842 63.4574 124.793 64.1747 126.38 63.5784C127.202 63.2719 127.264 63.5221 127.251 64.1976C127.226 65.6529 127.222 67.1123 127.256 68.5676Z" fill="white"/>
<path d="M104.558 55.8453C103.411 58.1804 104.178 61.2953 106.213 62.6255C107.479 63.4533 108.727 63.3136 109.978 62.613C110.219 62.4796 110.453 62.3336 110.85 62.1022C110.85 64.2539 110.852 66.2763 110.845 68.2987C110.845 68.6906 110.492 68.7761 110.219 68.9221C106.512 70.9195 101.681 69.877 99.0436 66.6266C97.0813 64.208 96.2034 61.3996 96.2333 58.441C96.2759 54.4651 97.6352 50.9123 101.066 48.4187C103.286 46.807 105.815 46.4776 108.431 47.026C111.425 47.6535 110.794 47.2261 110.854 49.9845C110.882 51.3022 110.856 52.622 110.85 53.9396C110.85 54.0064 110.818 54.071 110.769 54.2566C110.462 54.1252 110.238 54.0356 110.019 53.9334C107.617 52.7971 105.727 53.458 104.558 55.8453Z" fill="white"/>
<path d="M138.757 68.2799C138.776 69.3078 138.412 69.6018 137.406 69.5663C135.601 69.4996 133.793 69.5225 131.986 69.5601C131.304 69.5726 131.061 69.3683 131.063 68.6761C131.082 61.8458 131.084 55.0134 131.061 48.1831C131.057 47.4325 131.325 47.2386 132.045 47.2532C133.959 47.2908 135.874 47.2949 137.785 47.2511C138.535 47.2345 138.757 47.4826 138.748 48.204C138.719 51.6024 138.736 55.0009 138.736 58.3994C138.736 61.6936 138.699 64.9878 138.757 68.2799Z" fill="white"/>
<path d="M138.966 40.3896C138.895 42.756 137.268 44.3531 134.77 44.351C132.465 44.3489 130.863 42.7247 130.863 40.3875C130.486 38.461 132.917 36.4344 134.683 36.4553C137.195 36.4866 139.028 38.2984 138.966 40.3896Z" fill="white"/>
<path d="M102.985 19.7778C102.504 19.2315 102.625 18.5122 102.389 17.8972C103.164 18.36 103.154 19.046 102.985 19.7778Z" fill="white"/>
</g>
<defs>
<clipPath id="clip0_14_3">
<rect width="186" height="70" fill="white"/>
</clipPath>
</defs>
</svg>
