<svg width="173" height="66" viewBox="0 0 173 66" fill="none" xmlns="http://www.w3.org/2000/svg">
<g clip-path="url(#clip0_119_4523)">
<path d="M19.97 64.5747C19.2942 61.6457 18.6621 58.7068 18.0398 55.7679C17.4809 53.1318 16.1135 51.2289 13.0954 50.5054C14.5143 49.8685 15.6419 49.2886 16.6724 48.516C20.6696 45.5162 20.8895 37.7395 15.085 35.585C14.0902 35.2154 13.0656 34.9559 12.0034 34.95C8.27576 34.9264 4.54811 34.9402 0.822434 34.8969C0.152606 34.891 0.00199326 35.1073 0.003975 35.7324C0.0218107 45.3845 0.0237924 55.0366 1.1516e-05 64.6887C-0.00197022 65.3768 0.251693 65.5065 0.860087 65.4967C2.70509 65.4692 4.55405 65.4593 6.39905 65.5006C7.08672 65.5163 7.29678 65.3139 7.29084 64.6219C7.25715 61.1857 7.27498 57.7514 7.27498 54.3152C7.27498 52.8565 7.87743 52.5224 9.23889 53.2084C9.83341 53.5072 10.1941 54.0065 10.4438 54.5865C10.7708 55.3394 10.965 56.1316 11.074 56.9454C11.4129 59.5049 11.7775 62.0624 12.0866 64.6239C12.1719 65.3296 12.4572 65.5222 13.1608 65.5046C15.1702 65.4534 17.1857 65.4534 19.1952 65.5046C19.972 65.5242 20.1464 65.3335 19.97 64.5747ZM8.77516 47.3464C7.27498 47.3562 7.27498 47.3562 7.27498 45.8583V44.0006C7.27498 43.2182 7.32056 42.4319 7.26111 41.6534C7.21157 40.9752 7.49495 40.7885 8.11128 40.8612C8.37088 40.8907 8.63644 40.8632 8.89803 40.8671C11.1513 40.8887 12.2293 41.8854 12.2234 43.9396C12.2194 46.0293 10.9016 47.3307 8.77516 47.3464ZM40.5266 59.8941C37.2607 59.9354 33.9948 59.8804 30.7289 59.9335C29.8312 59.9472 29.7321 59.617 29.9362 58.9034C30.1661 58.1053 30.5129 57.3799 31.0777 56.7567C32.2727 55.4377 33.6797 54.3545 35.0233 53.1986C36.4938 51.9326 37.9226 50.6313 39.1731 49.1392C42.1516 45.5791 42.005 37.9262 34.7082 36.0961C31.2521 35.2311 27.9822 36.0076 24.7698 37.2559C24.4805 37.368 24.3615 37.539 24.3615 37.8397C24.3675 39.7918 24.3655 41.7438 24.3655 43.859C25.186 43.3676 25.8261 42.9685 26.48 42.597C27.1697 42.2058 27.9089 41.9286 28.6778 41.736C30.6417 41.2426 32.5243 41.8579 33.3091 43.2536C34.0622 44.5923 33.7094 45.9487 32.0824 47.4938C30.7982 48.7146 29.417 49.8331 28.115 51.0362C26.0302 52.9607 23.9929 54.9246 23.3806 57.8635C22.8951 60.191 22.9922 62.548 22.9684 64.901C22.9624 65.5085 23.3211 65.4888 23.7373 65.4888C29.3773 65.4869 35.0193 65.4751 40.6594 65.5006C41.3431 65.5046 41.4937 65.2588 41.4739 64.6435C41.4342 63.3677 41.4204 62.0899 41.4798 60.8161C41.5135 60.0671 41.2598 59.8863 40.5266 59.8941ZM66.9729 64.5315C65.9266 60.7316 64.9159 56.9218 63.9092 53.1141C62.3773 47.3208 60.8533 41.5256 59.3393 35.7285C59.1807 35.121 58.8755 34.9107 58.2315 34.9284C56.4519 34.9736 54.6683 34.9874 52.8887 34.9225C52.102 34.895 51.7928 35.1879 51.6144 35.9034C50.9605 38.5258 50.2649 41.1364 49.5772 43.7509C47.7481 50.7118 45.9308 57.6747 44.064 64.6258C43.844 65.4475 44.0779 65.595 44.823 65.5832C46.668 65.5537 48.517 65.5478 50.362 65.5871C50.9625 65.5989 51.2994 65.42 51.4044 64.8342C51.6818 63.2675 51.985 61.7047 52.2248 60.132C52.2902 59.6995 52.3873 59.4794 52.8649 59.4833C54.4483 59.497 56.0317 59.4911 57.6152 59.4853C58.0868 59.4853 58.3088 59.674 58.3841 60.1674C58.61 61.6103 58.9568 63.0355 59.1252 64.4823C59.2283 65.3689 59.7138 65.5655 60.4451 65.5714C61.4003 65.5773 62.3575 65.5734 63.3146 65.5734C64.2698 65.5734 65.229 65.538 66.1822 65.5832C67.0403 65.6245 67.1889 65.3178 66.9729 64.5315ZM56.4895 53.7982C55.6988 53.7785 54.9061 53.7864 54.1154 53.7962C53.6338 53.8021 53.4158 53.7313 53.5367 53.1219C54.1451 50.0769 54.6901 47.0201 55.2569 43.9672C55.3044 43.9652 55.352 43.9613 55.3996 43.9573C55.7305 45.6715 56.0734 47.3818 56.3845 49.0999C56.6223 50.4091 56.767 51.738 57.0523 53.0354C57.1851 53.6311 57.086 53.8159 56.4895 53.7982ZM86.285 55.5497C86.285 52.5715 86.287 49.5953 86.285 46.6171C86.283 45.4769 86.2057 45.4533 85.1078 45.6302C83.4293 45.9015 81.7448 46.1708 80.0524 46.3006C79.2736 46.3596 79.1408 46.621 79.1468 47.3031C79.1745 50.6725 79.1488 54.0419 79.1666 57.4133C79.1725 58.2606 78.8753 58.9545 78.2471 59.4892C77.4227 60.1929 76.4278 59.8725 76.2197 58.8267C76.0889 58.1623 75.974 57.4919 75.9799 56.796C76.0097 53.9161 75.9918 51.0362 75.9918 48.1583C75.9918 46.8117 75.9918 46.8176 74.6997 46.9139C74.4045 46.9375 74.1032 46.9021 73.808 46.9237C72.4703 47.024 71.1326 47.1361 69.793 47.2383C69.2242 47.2835 69.0478 47.5666 69.0518 48.1366C69.0756 52.0624 68.9864 55.992 69.0954 59.9158C69.1548 62.1096 70.1913 63.9693 72.0759 65.1743C74.242 66.5602 76.8182 66.1592 78.7623 64.2995C79.557 63.5368 79.6105 63.523 79.886 64.5217C80.1039 65.3217 80.5023 65.6343 81.3564 65.591C82.704 65.5242 84.0615 65.538 85.411 65.5871C86.1245 65.6127 86.3028 65.3434 86.2969 64.6789C86.2691 61.6358 86.285 58.5928 86.285 55.5497ZM87.2382 43.1396C84.4459 43.2221 81.6794 43.5288 78.903 43.7686C75.0505 44.1028 71.2277 44.6277 67.4367 45.3727C66.7351 45.5123 65.9583 45.5614 65.4014 46.0863C65.4767 46.3242 65.6214 46.2986 65.7443 46.3301C67.2444 46.7173 68.7446 46.3635 70.2448 46.3615C72.4544 46.3576 74.6363 46.0588 76.8222 45.8799C80.1753 45.6067 83.5086 45.0582 86.8359 44.5392C88.1736 44.3308 89.5588 44.1814 90.736 43.3322C89.5509 43.3047 88.4174 43.1042 87.2382 43.1396ZM99.638 19.4339C99.3566 19.1665 99.414 18.8638 99.3546 18.5277C99.1822 17.5487 98.8354 16.5972 98.7165 15.5947C98.7026 15.4846 98.4668 15.402 98.3399 15.2998C98.223 15.2094 97.9733 15.1091 98.1675 14.9479C98.9939 14.2481 98.2864 13.9866 97.8167 13.6525C97.5314 13.45 97.4244 13.1826 97.355 12.8347C97.0399 11.2699 96.6614 9.71495 96.0649 8.2288C95.4565 6.71513 95.5536 6.52444 97.1786 6.30231C97.5393 6.25316 97.8108 6.42812 98.116 6.54017C99.1346 6.91171 100.593 6.0035 100.52 4.97932C100.423 3.61701 100.191 2.26257 99.6419 0.992663C99.1921 -0.0472491 97.2044 -0.381436 96.6495 0.530698C96.3245 1.06736 95.8945 1.19514 95.401 1.33275C94.864 1.48215 94.3249 1.63352 93.776 1.72984C92.3531 1.98146 90.9956 2.70291 89.4518 2.03651C88.7562 1.73574 87.4384 3.2612 87.6108 4.02001C87.8545 5.09923 88.0745 6.18436 88.3698 7.24983C88.7681 8.68093 90.4605 9.11144 91.5108 8.04794C92.0043 7.54863 92.5592 7.29701 93.2488 7.25376C93.7879 7.22034 94.0514 7.39726 94.0078 7.97128C93.883 9.55572 94.2734 11.0773 94.646 12.5949C94.7193 12.8878 94.8521 13.1649 94.644 13.4323C93.6214 14.7513 93.5956 16.1825 94.3824 17.9399C93.4827 17.0474 93.2033 17.6391 93.0645 18.105C92.9456 18.506 92.7732 18.8186 92.476 19.084C91.7903 19.6914 91.1522 20.3696 90.4031 20.8866C89.3626 21.6002 88.675 23.0156 86.933 22.4278C86.1562 22.1644 85.2902 21.783 85.1118 20.8925C84.1071 15.8581 83.1122 10.8237 82.1115 5.78727C81.6239 3.33197 80.3735 2.31958 78.4155 2.23309C76.6736 2.15642 74.892 2.44736 73.1262 2.57317C69.9594 2.79924 66.7966 3.22975 63.6278 3.28086C61.2675 3.32018 59.4958 4.4053 57.7261 5.65949C57.203 6.03103 57.0028 6.63649 56.7808 7.23017C56.331 8.44504 56.8938 9.54196 57.1296 10.6644C58.1819 15.691 59.2719 20.7117 60.3658 25.7284C61.5489 31.1599 62.7399 36.5915 63.9567 42.0151C64.2798 43.4541 65.556 44.3564 67.0621 44.3721C68.3146 44.3839 69.4263 43.8374 70.5797 43.4914C73.7267 42.5498 76.838 41.4902 79.9811 40.5388C82.1253 39.8901 84.1943 39.1824 85.9957 37.7454C87.5157 36.5325 87.8625 35.064 87.5434 33.3322C87.0321 30.5525 86.4495 27.7866 85.9105 25.0129C85.8787 24.8497 85.7896 24.6256 86.0492 24.486C86.5406 24.8064 87.1134 24.9519 87.6643 25.1583C88.4768 25.465 89.0218 25.1288 89.1665 24.4035C89.2794 23.8294 89.5549 23.4835 89.9611 23.1434C90.5874 22.6165 91.1264 21.9482 91.8279 21.5629C92.5968 21.1402 93.0744 19.5499 94.3784 20.7608C94.4141 20.7942 94.5449 20.7942 94.5647 20.7647C95.0483 20.0669 95.0958 20.7785 95.3098 20.983C95.5219 21.1854 95.7756 21.4174 96.0827 21.3014C96.4989 21.1461 96.2294 20.8178 96.2036 20.5465C96.1382 19.8959 95.7022 19.3297 95.7874 18.6495C96.4632 19.6167 96.5326 20.7726 96.8655 21.8518C97.0359 22.4023 96.5682 23.279 97.3253 23.4618C97.8623 23.5896 98.5222 23.22 99.1267 23.0726C99.1584 23.0647 99.1861 23.0431 99.2178 23.0353C99.7371 22.9271 99.8619 22.6224 99.632 22.1742C99.4438 21.8086 99.303 21.496 99.6915 21.1324C100.288 20.576 100.209 19.9745 99.638 19.4339ZM68.9091 5.91701C70.3062 5.78137 71.6855 5.46094 73.1005 5.49633C73.3462 5.50222 73.5662 5.5494 73.588 5.85214C73.6078 6.14701 73.4295 6.24333 73.1659 6.27282C71.9649 6.40453 70.766 6.5441 69.6899 6.66598C69.3669 6.66598 69.1687 6.66991 68.9725 6.66598C68.7684 6.66205 68.5484 6.63846 68.5187 6.3947C68.485 6.13128 68.6554 5.94256 68.9091 5.91701ZM77.6525 37.8889C76.9312 37.9164 76.2296 37.2343 76.194 36.4735C76.1543 35.5889 76.8638 34.781 77.706 34.7475C78.6315 34.7141 79.1488 35.2252 79.1587 36.1924C79.1705 37.1773 78.5721 37.8535 77.6525 37.8889ZM83.6096 31.2052C78.6632 32.5163 73.7128 33.8098 68.7823 35.1741C67.8806 35.4238 67.6467 35.1446 67.4684 34.3544C66.1703 28.6457 64.8366 22.9448 63.5188 17.2401C63.0451 15.1799 62.6131 13.1099 62.0998 11.0596C61.9433 10.4266 62.1256 10.2379 62.7142 10.1671C64.6622 9.93315 66.6043 9.66187 68.5504 9.42204C70.5004 9.18221 72.4505 8.95615 74.4005 8.73794C75.9284 8.56495 77.4583 8.40965 79.125 8.23273C79.559 8.19145 79.8483 8.35264 79.9771 9.00922C81.3604 16.0901 82.7813 23.163 84.224 30.2301C84.3488 30.8474 84.1388 31.0636 83.6096 31.2052ZM102.329 50.8514C102.533 50.9478 102.741 51.0323 103.027 51.1561C103.072 50.9812 103.102 50.9202 103.102 50.8573C103.108 49.6149 103.132 48.3706 103.106 47.1282C103.051 44.5274 103.637 44.9304 100.853 44.3387C98.4192 43.8217 96.0669 44.1323 94.0019 45.6519C90.8113 48.003 89.5469 51.3527 89.5073 55.1015C89.4796 57.891 90.296 60.5389 92.1212 62.8193C94.5746 65.8839 99.0672 66.8669 102.515 64.9836C102.769 64.846 103.098 64.7654 103.098 64.3958C103.104 62.489 103.102 60.5822 103.102 58.5535C102.733 58.7717 102.515 58.9093 102.292 59.0351C101.128 59.6956 99.9669 59.8273 98.7898 59.0469C96.8972 57.7927 96.1838 54.8558 97.25 52.6541C98.3379 50.4032 100.096 49.7801 102.329 50.8514ZM118.357 60.5291C118.369 59.8922 118.312 59.6563 117.547 59.9453C116.071 60.5075 115.187 59.8312 115.185 58.2743C115.181 56.1807 115.183 54.0871 115.183 51.9936C115.183 49.729 115.183 49.7289 117.486 49.67C117.551 49.668 117.618 49.6641 117.684 49.67C118.217 49.723 118.363 49.4478 118.355 48.9642C118.338 47.7219 118.334 46.4775 118.357 45.2351C118.367 44.7142 118.143 44.5431 117.648 44.5608C116.956 44.5825 116.261 44.5353 115.571 44.5746C114.959 44.608 114.769 44.3662 114.778 43.7765C114.808 42.2058 114.769 40.6351 114.798 39.0664C114.81 38.4708 114.608 38.2585 114.002 38.2722C112.585 38.3037 111.166 38.3115 109.749 38.2703C109.071 38.2486 108.849 38.455 108.829 39.1509C108.794 40.3481 108.671 41.5492 108.484 42.7326C108.393 43.3243 108.805 44.1539 108.199 44.4586C107.668 44.726 106.909 44.5864 106.253 44.5549C105.625 44.5235 105.454 44.7948 105.476 45.3668C105.51 46.216 105.484 47.0692 105.484 47.9184C105.484 49.6326 105.484 49.666 107.175 49.6542C107.874 49.6503 108.088 49.8725 108.072 50.5546C108.031 52.255 108.058 53.9574 108.058 55.6578C108.058 57.3582 108.048 59.0587 108.06 60.7611C108.08 63.1731 109.497 65.0564 111.818 65.6579C113.798 66.171 115.781 66.0668 117.743 65.4869C118.189 65.3551 118.371 65.1291 118.361 64.6494C118.33 63.2773 118.334 61.9012 118.357 60.5291ZM129.039 55.0622C129.039 51.8579 129.023 48.6537 129.051 45.4494C129.059 44.7692 128.853 44.5353 128.155 44.551C126.378 44.5923 124.596 44.5884 122.816 44.553C122.147 44.5392 121.897 44.722 121.901 45.4297C121.923 51.8697 121.921 58.3117 121.903 64.7516C121.901 65.4043 122.127 65.5969 122.761 65.5852C124.441 65.5498 126.124 65.5281 127.802 65.591C128.738 65.6245 129.077 65.3473 129.059 64.3781C129.005 61.2741 129.039 58.1682 129.039 55.0622ZM125.27 34.3721C123.627 34.3524 121.366 36.2632 121.717 38.0796C121.717 40.2832 123.207 41.8146 125.351 41.8166C127.674 41.8185 129.188 40.3127 129.253 38.0815C129.311 36.1098 127.606 34.4016 125.27 34.3721ZM152.057 53.0748C151.696 48.172 147.626 43.8178 142.259 44.1716C138.066 43.8001 134.368 46.8274 133.165 50.6647C132.535 52.6737 132.325 54.6887 132.567 56.8078C132.844 59.2651 133.659 61.4353 135.323 63.2478C137.331 65.4338 139.947 66.0373 142.828 65.9803C146.28 65.9115 149.687 63.6724 151.03 60.5094C152.047 58.1171 152.249 55.6794 152.057 53.0748ZM144.207 59.0312C143.728 60.1104 142.989 60.5841 142.016 60.4603C140.963 60.3266 140.436 59.5482 140.167 58.6596C139.806 57.4782 139.602 56.2535 139.733 55.1919C139.707 53.5662 139.802 52.1587 140.422 50.8141C140.807 49.9786 141.393 49.5088 142.295 49.4832C143.201 49.4577 143.702 50.073 144.134 50.7571C144.657 51.5906 144.687 52.5577 144.786 53.4797C144.988 55.361 144.998 57.2501 144.207 59.0312ZM172.98 51.2662C172.98 50.5172 172.948 49.7801 172.806 49.0311C172.358 46.7075 171.082 45.0228 168.807 44.378C166.68 43.7745 164.637 44.0792 163.04 45.8701C162.342 46.6525 162.134 46.6053 161.958 45.5654C161.813 44.7122 161.409 44.5176 160.622 44.551C159.304 44.6041 157.98 44.6139 156.665 44.5471C155.81 44.5038 155.525 44.7358 155.543 45.6283C155.598 48.7677 155.565 51.909 155.565 55.0504C155.565 58.2566 155.579 61.4648 155.553 64.6711C155.547 65.3257 155.705 65.6068 156.431 65.5871C158.143 65.5419 159.861 65.536 161.575 65.5891C162.344 65.6127 162.513 65.3296 162.507 64.6219C162.475 61.2211 162.457 57.8163 162.511 54.4135C162.529 53.2595 162.554 52.0702 163.194 51.0126C163.569 50.3934 164.106 50.0061 164.804 50.1654C165.515 50.3285 165.85 50.9124 165.856 51.6495C165.858 51.8776 165.856 52.1076 165.856 52.3356C165.856 56.393 165.884 60.4505 165.836 64.5079C165.824 65.3964 166.098 65.6264 166.956 65.591C168.569 65.5262 170.188 65.5301 171.803 65.5891C172.709 65.6245 173.008 65.3375 173 64.4194C172.958 60.0357 172.982 55.65 172.98 51.2662Z" fill="#073142"/>
<path d="M99.638 19.434C99.3566 19.1666 99.414 18.8639 99.3546 18.5277C99.1822 17.5488 98.8354 16.5973 98.7165 15.5948C98.7026 15.4847 98.4668 15.4021 98.3399 15.2999C98.223 15.2095 97.9733 15.1092 98.1675 14.948C98.9939 14.2482 98.2864 13.9867 97.8168 13.6525C97.5314 13.4501 97.4244 13.1827 97.355 12.8348C97.0399 11.27 96.6614 9.71502 96.0649 8.22887C95.4565 6.7152 95.5536 6.52452 97.1786 6.30238C97.5393 6.25324 97.8108 6.42819 98.116 6.54025C99.1346 6.91178 100.593 6.00358 100.52 4.97939C100.423 3.61709 100.191 2.26265 99.6419 0.992739C99.1921 -0.0471728 97.2044 -0.38136 96.6495 0.530774C96.3245 1.06744 95.8945 1.19522 95.401 1.33282C94.864 1.48222 94.3249 1.63359 93.776 1.72992C92.3531 1.98154 90.9956 2.70299 89.4518 2.03658C88.7562 1.73581 87.4384 3.26128 87.6108 4.02008C87.8545 5.09931 88.0745 6.18443 88.3698 7.2499C88.7681 8.68101 90.4605 9.11152 91.5109 8.04802C92.0043 7.5487 92.5592 7.29708 93.2488 7.25383C93.7879 7.22042 94.0514 7.39734 94.0078 7.97135C93.883 9.55579 94.2734 11.0773 94.646 12.5949C94.7193 12.8878 94.8521 13.165 94.644 13.4324C93.6214 14.7514 93.5956 16.1825 94.3824 17.94C93.4827 17.0475 93.2033 17.6392 93.0645 18.1051C92.9456 18.5061 92.7732 18.8187 92.476 19.0841C91.7903 19.6915 91.1522 20.3697 90.4031 20.8867C89.3626 21.6003 88.675 23.0157 86.933 22.4279C86.1562 22.1645 85.2902 21.7831 85.1118 20.8926C84.1071 15.8582 83.1122 10.8237 82.1115 5.78734C81.624 3.33205 80.3735 2.31966 78.4155 2.23316C76.6736 2.1565 74.892 2.44744 73.1263 2.57325C69.9594 2.79932 66.7966 3.22983 63.6278 3.28094C61.2675 3.32025 59.4958 4.40538 57.7261 5.65956C57.203 6.0311 57.0028 6.63657 56.7809 7.23024C56.331 8.44511 56.8938 9.54203 57.1296 10.6645C58.1819 15.6911 59.2719 20.7117 60.3658 25.7285C61.5489 31.16 62.74 36.5915 63.9567 42.0152C64.2798 43.4542 65.556 44.3565 67.0621 44.3722C68.3146 44.384 69.4263 43.8375 70.5797 43.4915C73.7267 42.5499 76.838 41.4903 79.9811 40.5389C82.1253 39.8902 84.1943 39.1825 85.9957 37.7455C87.5157 36.5326 87.8625 35.0641 87.5434 33.3322C87.0321 30.5526 86.4495 27.7867 85.9105 25.0129C85.8788 24.8498 85.7896 24.6257 86.0492 24.4861C86.5406 24.8065 87.1134 24.952 87.6643 25.1584C88.4768 25.4651 89.0218 25.1289 89.1665 24.4035C89.2794 23.8295 89.5549 23.4835 89.9611 23.1434C90.5874 22.6166 91.1264 21.9482 91.8279 21.5629C92.5968 21.1403 93.0744 19.55 94.3784 20.7609C94.4141 20.7943 94.5449 20.7943 94.5647 20.7648C95.0483 20.067 95.0958 20.7786 95.3099 20.983C95.5219 21.1855 95.7756 21.4175 96.0827 21.3015C96.4989 21.1462 96.2294 20.8179 96.2036 20.5466C96.1382 19.8959 95.7022 19.3298 95.7875 18.6496C96.4632 19.6168 96.5326 20.7727 96.8655 21.8519C97.0359 22.4023 96.5683 23.2791 97.3253 23.4619C97.8623 23.5897 98.5223 23.2201 99.1267 23.0727C99.1584 23.0648 99.1861 23.0432 99.2178 23.0353C99.7371 22.9272 99.8619 22.6225 99.632 22.1743C99.4438 21.8087 99.3031 21.4961 99.6915 21.1324C100.288 20.5761 100.209 19.9746 99.638 19.434ZM68.9091 5.91708C70.3062 5.78144 71.6855 5.46102 73.1005 5.4964C73.3462 5.5023 73.5662 5.54948 73.588 5.85221C73.6078 6.14708 73.4295 6.24341 73.1659 6.2729C71.965 6.4046 70.766 6.54418 69.6899 6.66606C69.3669 6.66606 69.1687 6.66999 68.9725 6.66606C68.7684 6.66213 68.5484 6.63854 68.5187 6.39478C68.485 6.13136 68.6554 5.94264 68.9091 5.91708ZM77.6525 37.889C76.9312 37.9165 76.2297 37.2344 76.194 36.4736C76.1544 35.589 76.8638 34.781 77.706 34.7476C78.6315 34.7142 79.1488 35.2253 79.1587 36.1925C79.1706 37.1773 78.5721 37.8536 77.6525 37.889ZM83.6097 31.2052C78.6632 32.5164 73.7128 33.8099 68.7823 35.1742C67.8806 35.4238 67.6467 35.1447 67.4684 34.3544C66.1703 28.6457 64.8366 22.9449 63.5188 17.2401C63.0451 15.18 62.6131 13.11 62.0998 11.0596C61.9433 10.4266 62.1256 10.2379 62.7142 10.1672C64.6622 9.93323 66.6043 9.66195 68.5504 9.42212C70.5004 9.18229 72.4505 8.95622 74.4005 8.73802C75.9284 8.56503 77.4583 8.40973 79.125 8.23281C79.559 8.19152 79.8483 8.35272 79.9771 9.0093C81.3604 16.0901 82.7813 23.1631 84.224 30.2302C84.3488 30.8474 84.1388 31.0637 83.6097 31.2052ZM95.506 17.3168C95.7736 17.649 95.6032 18.1365 95.7518 18.5631C95.5972 18.1385 95.728 17.6569 95.506 17.3168Z" fill="#073142"/>
<path d="M19.97 64.5748C19.2942 61.6457 18.6621 58.7069 18.0398 55.768C17.4809 53.1318 16.1135 51.2289 13.0954 50.5055C14.5143 49.8686 15.6419 49.2887 16.6724 48.5161C20.6696 45.5163 20.8895 37.7396 15.085 35.585C14.0902 35.2155 13.0656 34.956 12.0034 34.9501C8.27576 34.9265 4.54811 34.9402 0.822434 34.897C0.152606 34.8911 0.00199326 35.1073 0.003975 35.7325C0.0218107 45.3846 0.0237924 55.0367 1.1516e-05 64.6888C-0.00197022 65.3768 0.251693 65.5066 0.860087 65.4967C2.70509 65.4692 4.55405 65.4594 6.39905 65.5007C7.08672 65.5164 7.29678 65.3139 7.29084 64.622C7.25715 61.1857 7.27498 57.7515 7.27498 54.3152C7.27498 52.8566 7.87743 52.5224 9.23889 53.2085C9.83341 53.5073 10.1941 54.0066 10.4438 54.5865C10.7708 55.3394 10.965 56.1316 11.074 56.9455C11.4129 59.505 11.7775 62.0625 12.0866 64.6239C12.1719 65.3297 12.4572 65.5223 13.1608 65.5046C15.1702 65.4535 17.1857 65.4535 19.1952 65.5046C19.972 65.5243 20.1464 65.3336 19.97 64.5748ZM8.77516 47.3465C7.27498 47.3563 7.27498 47.3563 7.27498 45.8583V44.0006C7.27498 43.2183 7.32056 42.4319 7.26111 41.6535C7.21157 40.9753 7.49495 40.7885 8.11128 40.8613C8.37088 40.8907 8.63644 40.8632 8.89803 40.8672C11.1513 40.8888 12.2293 41.8854 12.2234 43.9397C12.2194 46.0294 10.9016 47.3307 8.77516 47.3465Z" fill="#00C683"/>
<path d="M66.973 64.5315C65.9266 60.7316 64.9159 56.9219 63.9092 53.1141C62.3773 47.3209 60.8533 41.5257 59.3393 35.7285C59.1807 35.1211 58.8756 34.9108 58.2315 34.9285C56.4519 34.9737 54.6683 34.9874 52.8887 34.9226C52.102 34.895 51.7928 35.1879 51.6145 35.9035C50.9605 38.5259 50.2649 41.1365 49.5772 43.751C47.7481 50.7119 45.9308 57.6748 44.064 64.6259C43.8441 65.4476 44.0779 65.595 44.823 65.5832C46.668 65.5538 48.517 65.5479 50.362 65.5872C50.9625 65.599 51.2994 65.4201 51.4044 64.8343C51.6818 63.2675 51.985 61.7047 52.2248 60.1321C52.2902 59.6996 52.3873 59.4794 52.8649 59.4833C54.4484 59.4971 56.0318 59.4912 57.6152 59.4853C58.0868 59.4853 58.3088 59.674 58.3841 60.1674C58.61 61.6104 58.9568 63.0356 59.1253 64.4824C59.2283 65.369 59.7138 65.5656 60.4451 65.5715C61.4003 65.5773 62.3575 65.5734 63.3147 65.5734C64.2699 65.5734 65.229 65.538 66.1822 65.5832C67.0403 65.6245 67.189 65.3179 66.973 64.5315ZM56.4895 53.7982C55.6988 53.7786 54.9061 53.7864 54.1154 53.7963C53.6339 53.8022 53.4159 53.7314 53.5367 53.122C54.1451 50.077 54.6901 47.0201 55.2569 43.9672C55.3045 43.9653 55.352 43.9613 55.3996 43.9574C55.7305 45.6716 56.0734 47.3818 56.3845 49.1C56.6223 50.4092 56.767 51.7381 57.0524 53.0355C57.1851 53.6311 57.086 53.8159 56.4895 53.7982Z" fill="#073142"/>
<path d="M41.4798 60.8162C41.4203 62.09 41.4342 63.3678 41.4738 64.6436C41.4936 65.2589 41.343 65.5046 40.6593 65.5007C35.0193 65.4751 29.3773 65.4869 23.7372 65.4889C23.3211 65.4889 22.9624 65.5085 22.9683 64.9011C22.9921 62.548 22.895 60.191 23.3805 57.8635C23.9929 54.9246 26.0301 52.9608 28.1149 51.0363C29.4169 49.8332 30.7982 48.7147 32.0824 47.4939C33.7094 45.9488 34.0621 44.5924 33.3091 43.2536C32.5243 41.8579 30.6416 41.2426 28.6777 41.736C27.9088 41.9287 27.1696 42.2059 26.48 42.5971C25.826 42.9686 25.1859 43.3677 24.3655 43.8591C24.3655 41.7439 24.3674 39.7919 24.3615 37.8398C24.3615 37.539 24.4804 37.368 24.7697 37.256C27.9821 36.0077 31.252 35.2312 34.7082 36.0961C42.0049 37.9263 42.1516 45.5792 39.173 49.1393C37.9225 50.6313 36.4937 51.9327 35.0233 53.1987C33.6796 54.3546 32.2726 55.4377 31.0776 56.7568C30.5128 57.3799 30.166 58.1053 29.9361 58.9034C29.732 59.617 29.8311 59.9473 30.7288 59.9335C33.9947 59.8804 37.2606 59.9355 40.5266 59.8942C41.2598 59.8863 41.5135 60.0672 41.4798 60.8162Z" fill="#00C684"/>
<path d="M173 64.4195C173.008 65.3375 172.709 65.6245 171.803 65.5892C170.188 65.5302 168.569 65.5262 166.956 65.5911C166.098 65.6265 165.824 65.3965 165.836 64.508C165.883 60.4505 165.856 56.3931 165.856 52.3357C165.856 52.1077 165.858 51.8776 165.856 51.6496C165.85 50.9124 165.515 50.3286 164.803 50.1654C164.106 50.0062 163.569 50.3935 163.194 51.0127C162.554 52.0703 162.528 53.2596 162.511 54.4135C162.457 57.8164 162.475 61.2211 162.507 64.622C162.513 65.3297 162.344 65.6127 161.575 65.5892C159.861 65.5361 158.143 65.542 156.431 65.5872C155.705 65.6068 155.547 65.3257 155.553 64.6711C155.578 61.4649 155.565 58.2567 155.565 55.0505C155.565 51.9091 155.598 48.7677 155.543 45.6284C155.525 44.7359 155.81 44.5039 156.664 44.5472C157.98 44.614 159.304 44.6042 160.622 44.5511C161.409 44.5177 161.813 44.7123 161.958 45.5654C162.134 46.6054 162.342 46.6525 163.04 45.8701C164.637 44.0793 166.68 43.7746 168.807 44.3781C171.082 45.0229 172.358 46.7076 172.806 49.0312C172.948 49.7801 172.98 50.5173 172.98 51.2663C172.982 55.65 172.958 60.0358 173 64.4195Z" fill="#073142"/>
<path d="M152.057 53.0748C151.696 48.1721 147.626 43.8178 142.259 44.1717C138.066 43.8001 134.368 46.8275 133.165 50.6647C132.535 52.6738 132.325 54.6887 132.567 56.8079C132.844 59.2651 133.659 61.4354 135.323 63.2479C137.331 65.4338 139.947 66.0373 142.828 65.9803C146.28 65.9115 149.687 63.6725 151.031 60.5095C152.047 58.1171 152.249 55.6795 152.057 53.0748ZM144.207 59.0312C143.728 60.1104 142.989 60.5842 142.016 60.4604C140.963 60.3267 140.436 59.5482 140.167 58.6597C139.806 57.4782 139.602 56.2535 139.733 55.192C139.707 53.5663 139.802 52.1587 140.422 50.8141C140.807 49.9787 141.393 49.5088 142.295 49.4833C143.201 49.4577 143.702 50.073 144.134 50.7571C144.657 51.5906 144.687 52.5578 144.786 53.4798C144.988 55.361 144.998 57.2502 144.207 59.0312Z" fill="#073142"/>
<path d="M86.2969 64.679C86.3028 65.3434 86.1245 65.6127 85.411 65.5872C84.0615 65.538 82.704 65.5243 81.3564 65.5911C80.5023 65.6344 80.1039 65.3218 79.886 64.5217C79.6105 63.5231 79.557 63.5368 78.7623 64.2996C76.8182 66.1592 74.242 66.5603 72.0759 65.1744C70.1913 63.9693 69.1548 62.1097 69.0954 59.9158C68.9864 55.9921 69.0756 52.0624 69.0518 48.1367C69.0478 47.5666 69.2242 47.2836 69.7929 47.2383C71.1326 47.1361 72.4703 47.0241 73.808 46.9238C74.1032 46.9022 74.4045 46.9376 74.6997 46.914C75.9918 46.8177 75.9918 46.8118 75.9918 48.1583C75.9918 51.0363 76.0097 53.9162 75.9799 56.7961C75.974 57.492 76.0889 58.1623 76.2197 58.8268C76.4278 59.8726 77.4227 60.193 78.2471 59.4893C78.8753 58.9546 79.1725 58.2606 79.1666 57.4134C79.1488 54.042 79.1745 50.6726 79.1468 47.3032C79.1408 46.6211 79.2736 46.3596 80.0524 46.3007C81.7448 46.1709 83.4293 45.9016 85.1078 45.6303C86.2057 45.4534 86.283 45.477 86.285 46.6171C86.287 49.5953 86.285 52.5716 86.285 55.5498C86.285 58.5928 86.2691 61.6359 86.2969 64.679Z" fill="#073142"/>
<path d="M118.361 64.6495C118.371 65.1291 118.189 65.3552 117.743 65.4869C115.781 66.0668 113.798 66.171 111.818 65.6579C109.497 65.0564 108.08 63.1732 108.06 60.7611C108.048 59.0587 108.058 57.3583 108.058 55.6579C108.058 53.9575 108.031 52.2551 108.072 50.5547C108.088 49.8725 107.874 49.6504 107.175 49.6543C105.484 49.6661 105.484 49.6327 105.484 47.9185C105.484 47.0693 105.51 46.2161 105.476 45.3669C105.454 44.7948 105.625 44.5236 106.253 44.555C106.909 44.5865 107.668 44.726 108.199 44.4587C108.805 44.154 108.393 43.3244 108.484 42.7327C108.671 41.5493 108.794 40.3482 108.829 39.151C108.849 38.4551 109.071 38.2487 109.749 38.2703C111.166 38.3116 112.585 38.3037 114.002 38.2723C114.608 38.2585 114.81 38.4708 114.798 39.0665C114.769 40.6352 114.808 42.2059 114.778 43.7766C114.769 44.3663 114.959 44.6081 115.571 44.5747C116.261 44.5354 116.956 44.5825 117.648 44.5609C118.143 44.5432 118.367 44.7142 118.357 45.2352C118.334 46.4776 118.338 47.7219 118.356 48.9643C118.363 49.4479 118.217 49.7231 117.684 49.67C117.618 49.6641 117.551 49.6681 117.486 49.67C115.183 49.729 115.183 49.729 115.183 51.9936C115.183 54.0872 115.181 56.1808 115.185 58.2744C115.187 59.8313 116.071 60.5075 117.547 59.9453C118.312 59.6563 118.369 59.8922 118.357 60.5292C118.334 61.9013 118.33 63.2774 118.361 64.6495Z" fill="#073142"/>
<path d="M97.2499 52.6541C96.1838 54.8558 96.8972 57.7928 98.7897 59.0469C99.9669 59.8274 101.128 59.6957 102.291 59.0352C102.515 58.9093 102.733 58.7717 103.102 58.5535C103.102 60.5822 103.104 62.4891 103.098 64.3959C103.098 64.7655 102.769 64.8461 102.515 64.9837C99.0672 66.8669 94.5746 65.884 92.1212 62.8193C90.296 60.539 89.4795 57.8911 89.5073 55.1016C89.5469 51.3528 90.8113 48.003 94.0019 45.6519C96.0668 44.1324 98.4192 43.8218 100.853 44.3388C103.637 44.9305 103.05 44.5275 103.106 47.1283C103.132 48.3707 103.108 49.615 103.102 50.8574C103.102 50.9203 103.072 50.9812 103.027 51.1562C102.741 51.0324 102.533 50.9478 102.329 50.8515C100.096 49.7801 98.3379 50.4033 97.2499 52.6541Z" fill="#073142"/>
<path d="M129.059 64.3782C129.077 65.3473 128.738 65.6245 127.803 65.5911C126.124 65.5282 124.442 65.5498 122.761 65.5852C122.127 65.597 121.901 65.4044 121.903 64.7517C121.921 58.3117 121.923 51.8698 121.901 45.4298C121.897 44.7221 122.147 44.5393 122.816 44.553C124.596 44.5884 126.378 44.5924 128.155 44.5511C128.853 44.5354 129.059 44.7693 129.051 45.4495C129.023 48.6537 129.039 51.858 129.039 55.0623C129.039 58.1682 129.005 61.2742 129.059 64.3782Z" fill="#073142"/>
<path d="M129.253 38.0816C129.188 40.3128 127.674 41.8186 125.351 41.8166C123.207 41.8147 121.717 40.2833 121.717 38.0796C121.366 36.2632 123.627 34.3525 125.27 34.3721C127.606 34.4016 129.311 36.1099 129.253 38.0816Z" fill="#073142"/>
<path d="M90.7359 43.3323C89.5588 44.1815 88.1735 44.3309 86.8359 44.5393C83.5085 45.0583 80.1752 45.6067 76.8221 45.88C74.6363 46.0589 72.4544 46.3577 70.2447 46.3616C68.7446 46.3636 67.2444 46.7174 65.7442 46.3301C65.6213 46.2987 65.4767 46.3242 65.4014 46.0864C65.9582 45.5615 66.7351 45.5124 67.4366 45.3728C71.2277 44.6277 75.0505 44.1029 78.903 43.7687C81.6794 43.5289 84.4459 43.2222 87.2382 43.1396C88.4173 43.1042 89.5509 43.3048 90.7359 43.3323Z" fill="#073142"/>
<path d="M95.7876 18.6476C95.3397 18.1326 95.4526 17.4544 95.2327 16.8745C95.954 17.3109 95.9441 17.9576 95.7876 18.6476Z" fill="#073142"/>
</g>
<defs>
<clipPath id="clip0_119_4523">
<rect width="173" height="66" fill="white"/>
</clipPath>
</defs>
</svg>
